<mxfile host="app.diagrams.net" modified="2023-12-12T07:36:18.859Z" agent="Mozilla/5.0 (X11; Linux x86_64) AppleWebKit/537.36 (KHTML, like Gecko) Chrome/119.0.0.0 Safari/537.36 Edg/119.0.0.0" etag="Bm8Md306Zp-1RbsKdu9p" version="22.1.7" type="device">
  <diagram name="Page-1" id="YUszmAUclPYdTp25wO-0">
    <mxGraphModel dx="996" dy="577" grid="1" gridSize="10" guides="1" tooltips="1" connect="1" arrows="1" fold="1" page="1" pageScale="1" pageWidth="850" pageHeight="1100" math="0" shadow="0">
      <root>
        <mxCell id="0" />
        <mxCell id="1" parent="0" />
        <mxCell id="JARaZCLQ9CR7d0WhvhcZ-6" value="" style="edgeStyle=orthogonalEdgeStyle;rounded=0;orthogonalLoop=1;jettySize=auto;html=1;" edge="1" parent="1" source="JARaZCLQ9CR7d0WhvhcZ-1" target="JARaZCLQ9CR7d0WhvhcZ-5">
          <mxGeometry relative="1" as="geometry" />
        </mxCell>
        <mxCell id="JARaZCLQ9CR7d0WhvhcZ-10" style="edgeStyle=orthogonalEdgeStyle;rounded=0;orthogonalLoop=1;jettySize=auto;html=1;entryX=1;entryY=0.75;entryDx=0;entryDy=0;" edge="1" parent="1" source="JARaZCLQ9CR7d0WhvhcZ-1" target="JARaZCLQ9CR7d0WhvhcZ-9">
          <mxGeometry relative="1" as="geometry">
            <Array as="points">
              <mxPoint x="410" y="365" />
            </Array>
          </mxGeometry>
        </mxCell>
        <mxCell id="JARaZCLQ9CR7d0WhvhcZ-21" style="edgeStyle=orthogonalEdgeStyle;rounded=0;orthogonalLoop=1;jettySize=auto;html=1;" edge="1" parent="1" source="JARaZCLQ9CR7d0WhvhcZ-1" target="JARaZCLQ9CR7d0WhvhcZ-17">
          <mxGeometry relative="1" as="geometry" />
        </mxCell>
        <mxCell id="JARaZCLQ9CR7d0WhvhcZ-1" value="MCU" style="rounded=0;whiteSpace=wrap;html=1;" vertex="1" parent="1">
          <mxGeometry x="360" y="160" width="120" height="60" as="geometry" />
        </mxCell>
        <mxCell id="JARaZCLQ9CR7d0WhvhcZ-3" style="edgeStyle=orthogonalEdgeStyle;rounded=0;orthogonalLoop=1;jettySize=auto;html=1;entryX=0;entryY=0.5;entryDx=0;entryDy=0;" edge="1" parent="1" source="JARaZCLQ9CR7d0WhvhcZ-2" target="JARaZCLQ9CR7d0WhvhcZ-1">
          <mxGeometry relative="1" as="geometry" />
        </mxCell>
        <mxCell id="JARaZCLQ9CR7d0WhvhcZ-2" value="Pow. In" style="rounded=0;whiteSpace=wrap;html=1;" vertex="1" parent="1">
          <mxGeometry x="70" y="160" width="120" height="60" as="geometry" />
        </mxCell>
        <mxCell id="JARaZCLQ9CR7d0WhvhcZ-5" value="Data Out to Electronics" style="rounded=0;whiteSpace=wrap;html=1;" vertex="1" parent="1">
          <mxGeometry x="360" y="20" width="120" height="60" as="geometry" />
        </mxCell>
        <mxCell id="JARaZCLQ9CR7d0WhvhcZ-8" style="edgeStyle=orthogonalEdgeStyle;rounded=0;orthogonalLoop=1;jettySize=auto;html=1;entryX=1;entryY=0.5;entryDx=0;entryDy=0;" edge="1" parent="1" source="JARaZCLQ9CR7d0WhvhcZ-7" target="JARaZCLQ9CR7d0WhvhcZ-1">
          <mxGeometry relative="1" as="geometry" />
        </mxCell>
        <mxCell id="JARaZCLQ9CR7d0WhvhcZ-7" value="In. from last slave" style="whiteSpace=wrap;html=1;" vertex="1" parent="1">
          <mxGeometry x="680" y="180" width="120" height="60" as="geometry" />
        </mxCell>
        <mxCell id="JARaZCLQ9CR7d0WhvhcZ-9" value="Out. to first slave" style="whiteSpace=wrap;html=1;" vertex="1" parent="1">
          <mxGeometry x="40" y="320" width="120" height="60" as="geometry" />
        </mxCell>
        <mxCell id="JARaZCLQ9CR7d0WhvhcZ-11" style="edgeStyle=orthogonalEdgeStyle;rounded=0;orthogonalLoop=1;jettySize=auto;html=1;entryX=1.007;entryY=0.38;entryDx=0;entryDy=0;entryPerimeter=0;" edge="1" parent="1" source="JARaZCLQ9CR7d0WhvhcZ-2" target="JARaZCLQ9CR7d0WhvhcZ-9">
          <mxGeometry relative="1" as="geometry" />
        </mxCell>
        <mxCell id="JARaZCLQ9CR7d0WhvhcZ-14" value="" style="edgeStyle=orthogonalEdgeStyle;rounded=0;orthogonalLoop=1;jettySize=auto;html=1;" edge="1" parent="1" source="JARaZCLQ9CR7d0WhvhcZ-12" target="JARaZCLQ9CR7d0WhvhcZ-13">
          <mxGeometry relative="1" as="geometry" />
        </mxCell>
        <mxCell id="JARaZCLQ9CR7d0WhvhcZ-12" value="Batt. Neg.&amp;nbsp;" style="rounded=0;whiteSpace=wrap;html=1;" vertex="1" parent="1">
          <mxGeometry x="70" y="570" width="120" height="60" as="geometry" />
        </mxCell>
        <mxCell id="JARaZCLQ9CR7d0WhvhcZ-16" value="" style="edgeStyle=orthogonalEdgeStyle;rounded=0;orthogonalLoop=1;jettySize=auto;html=1;" edge="1" parent="1" source="JARaZCLQ9CR7d0WhvhcZ-13" target="JARaZCLQ9CR7d0WhvhcZ-15">
          <mxGeometry relative="1" as="geometry" />
        </mxCell>
        <mxCell id="JARaZCLQ9CR7d0WhvhcZ-13" value="IGBT" style="rounded=0;whiteSpace=wrap;html=1;" vertex="1" parent="1">
          <mxGeometry x="70" y="430" width="120" height="60" as="geometry" />
        </mxCell>
        <mxCell id="JARaZCLQ9CR7d0WhvhcZ-18" value="" style="edgeStyle=orthogonalEdgeStyle;rounded=0;orthogonalLoop=1;jettySize=auto;html=1;" edge="1" parent="1" source="JARaZCLQ9CR7d0WhvhcZ-15" target="JARaZCLQ9CR7d0WhvhcZ-17">
          <mxGeometry relative="1" as="geometry" />
        </mxCell>
        <mxCell id="JARaZCLQ9CR7d0WhvhcZ-15" value="Current shunt" style="rounded=0;whiteSpace=wrap;html=1;" vertex="1" parent="1">
          <mxGeometry x="270" y="430" width="120" height="60" as="geometry" />
        </mxCell>
        <mxCell id="JARaZCLQ9CR7d0WhvhcZ-20" value="" style="edgeStyle=orthogonalEdgeStyle;rounded=0;orthogonalLoop=1;jettySize=auto;html=1;" edge="1" parent="1" source="JARaZCLQ9CR7d0WhvhcZ-17" target="JARaZCLQ9CR7d0WhvhcZ-19">
          <mxGeometry relative="1" as="geometry" />
        </mxCell>
        <mxCell id="JARaZCLQ9CR7d0WhvhcZ-17" value="Contactor Port" style="rounded=0;whiteSpace=wrap;html=1;" vertex="1" parent="1">
          <mxGeometry x="470" y="430" width="120" height="60" as="geometry" />
        </mxCell>
        <mxCell id="JARaZCLQ9CR7d0WhvhcZ-19" value="Battery Drain/Charge" style="rounded=0;whiteSpace=wrap;html=1;" vertex="1" parent="1">
          <mxGeometry x="470" y="570" width="120" height="60" as="geometry" />
        </mxCell>
        <mxCell id="JARaZCLQ9CR7d0WhvhcZ-22" style="edgeStyle=orthogonalEdgeStyle;rounded=0;orthogonalLoop=1;jettySize=auto;html=1;entryX=0.583;entryY=0.027;entryDx=0;entryDy=0;entryPerimeter=0;" edge="1" parent="1" source="JARaZCLQ9CR7d0WhvhcZ-1" target="JARaZCLQ9CR7d0WhvhcZ-13">
          <mxGeometry relative="1" as="geometry">
            <Array as="points">
              <mxPoint x="400" y="390" />
              <mxPoint x="140" y="390" />
            </Array>
          </mxGeometry>
        </mxCell>
        <mxCell id="JARaZCLQ9CR7d0WhvhcZ-23" style="edgeStyle=orthogonalEdgeStyle;rounded=0;orthogonalLoop=1;jettySize=auto;html=1;entryX=0.187;entryY=1.02;entryDx=0;entryDy=0;entryPerimeter=0;" edge="1" parent="1" source="JARaZCLQ9CR7d0WhvhcZ-15" target="JARaZCLQ9CR7d0WhvhcZ-1">
          <mxGeometry relative="1" as="geometry" />
        </mxCell>
      </root>
    </mxGraphModel>
  </diagram>
</mxfile>
